HIERARCHY
ROOT hip
{
	OFFSET 0.000000 0.000000 0.000000 
	CHANNELS 6 Xposition Yposition Zposition Xrotation Zrotation Yrotation
	JOINT abdomen
	{
		OFFSET 0.000000 3.402643 0.000000 
		CHANNELS 3 Xrotation Zrotation Yrotation
		JOINT chest
		{
			OFFSET 0.000000 8.438565 -0.680529 
			CHANNELS 3 Xrotation Zrotation Yrotation
			JOINT neck
			{
				OFFSET 0.000000 10.207942 -0.272212 
				CHANNELS 3 Xrotation Zrotation Yrotation
				JOINT head
				{
					OFFSET 0.000000 3.130431 0.000000 
					CHANNELS 3 Xrotation Zrotation Yrotation
					End Site
					{
						OFFSET 0.000000 3.130435 0.000000 
					}
				}
			}
			JOINT lCollar
			{
				OFFSET 3.470700 6.669187 -0.816635 
				CHANNELS 3 Yrotation Zrotation Xrotation
				JOINT lShldr
				{
					OFFSET 3.198488 0.000000 0.000000 
					CHANNELS 3 Zrotation Yrotation Xrotation
					JOINT lForeArm
					{
						OFFSET 10.139888 0.000000 0.000000 
						CHANNELS 3 Yrotation Zrotation Xrotation
						JOINT lHand
						{
							OFFSET 8.370511 0.000000 0.000000 
							CHANNELS 3 Zrotation Yrotation Xrotation
							End Site
							{
								OFFSET 4.083176 0.000000 0.000000 
							}
						}
					}
				}
			}
			JOINT rCollar
			{
				OFFSET -3.470700 6.669187 -0.816635 
				CHANNELS 3 Yrotation Zrotation Xrotation
				JOINT rShldr
				{
					OFFSET -3.198488 0.000000 0.000000 
					CHANNELS 3 Zrotation Yrotation Xrotation
					JOINT rForeArm
					{
						OFFSET -10.139888 0.000000 0.000000 
						CHANNELS 3 Yrotation Zrotation Xrotation
						JOINT rHand
						{
							OFFSET -8.370511 0.000000 0.000000 
							CHANNELS 3 Zrotation Yrotation Xrotation
							End Site
							{
								OFFSET -4.083176 0.000000 0.000000 
							}
						}
					}
				}
			}
		}
	}
	JOINT lThigh
	{
		OFFSET 5.308129 -1.633274 1.361059 
		CHANNELS 3 Xrotation Zrotation Yrotation
		JOINT lShin
		{
			OFFSET -2.041588 -20.007561 0.000000 
			CHANNELS 3 Xrotation Zrotation Yrotation
			JOINT lFoot
			{
				OFFSET 0.000000 -19.190928 -1.224953 
				CHANNELS 3 Xrotation Yrotation Zrotation
				End Site
				{
					OFFSET 0.000000 -2.449906 4.627600 
				}
			}
		}
	}
	JOINT rThigh
	{
		OFFSET -5.308129 -1.633274 1.361059 
		CHANNELS 3 Xrotation Zrotation Yrotation
		JOINT rShin
		{
			OFFSET 2.041588 -20.007561 0.000000 
			CHANNELS 3 Xrotation Zrotation Yrotation
			JOINT rFoot
			{
				OFFSET 0.000000 -19.190928 -1.224953 
				CHANNELS 3 Xrotation Yrotation Zrotation
				End Site
				{
					OFFSET 0.000000 -2.449906 4.627600 
				}
			}
		}
	}
}
MOTION
Frames: 8
Frame Time: 0.033333
12.844190 46.894596 -8.237391 -5.000397 -7.740952 -82.642738 0.000000 0.000000 0.000000 14.974394 5.546816 -0.264325 15.715029 0.224148 31.777647 -7.845235 -0.584094 28.409775 -10.037997 1.485162 14.753873 -89.517365 -82.749504 81.722893 -76.476364 2.300904 53.897335 16.328775 2.165097 -3.659180 6.847330 17.922194 12.746642 51.068150 -15.989007 -43.040649 117.247139 10.651250 -45.887905 -22.161852 8.772965 -5.698100 1.873770 15.142065 7.457668 1.919704 2.010311 7.365674 9.510765 -1.331196 -16.100029 -5.595992 -21.150433 -9.775642 27.834080 -0.931152 -4.326027 -9.363216 -1.290640 15.556125 
12.754261 46.949295 -8.205766 -4.903314 -7.744783 -82.350700 0.000000 0.000000 0.000000 14.861502 5.507725 -0.323590 15.691777 0.265740 31.748438 -7.657631 -1.002462 28.676649 -10.019981 1.216800 14.634341 -87.215919 -82.853043 80.792656 -76.348373 2.178711 54.011414 16.738350 2.333675 -3.641310 6.787676 17.812843 12.651956 51.485600 -16.445246 -42.148502 117.464790 10.335590 -46.648552 -23.263031 10.225080 -6.096608 1.815678 15.224082 7.629109 1.886665 1.870606 7.376142 9.648230 -1.295917 -15.526339 -5.028971 -21.095530 -10.103664 27.259886 -0.771858 -4.493798 -9.206550 -1.271056 15.558877 
12.679276 46.963211 -8.192581 -4.833958 -7.677991 -82.010452 0.000000 0.000000 0.000000 14.751138 5.449043 -0.460620 15.555100 0.107946 31.757879 -7.897894 -0.745426 28.674433 -10.111406 0.629500 14.496117 -83.475899 -83.136116 78.692642 -76.358223 2.019499 53.899021 16.860527 2.263710 -3.650007 6.649870 17.777241 12.567935 51.359318 -16.857456 -40.947296 117.826202 9.888702 -47.961033 -24.744213 11.353390 -6.507818 1.745805 15.344460 7.823087 1.870402 1.678385 7.024256 9.599736 -1.292216 -15.467463 -4.687270 -21.048172 -10.262669 27.068483 -0.683677 -4.772863 -9.230653 -1.291723 15.625144 
12.622464 46.963558 -8.188709 -4.913539 -7.368773 -81.802536 0.000000 0.000000 0.000000 14.475176 5.214716 -0.401396 15.325896 -0.041539 31.708990 -7.921207 -0.805251 28.694485 -10.157128 0.984156 14.248564 -83.976952 -83.167114 79.542542 -76.202042 1.795900 53.573551 17.296555 1.745089 -3.721529 6.781353 17.252720 12.349746 51.832092 -17.608984 -39.901917 118.256516 9.525410 -49.758327 -26.434383 12.657069 -7.034009 1.434945 15.319959 7.888694 1.847077 1.422411 6.927014 9.629609 -1.254983 -15.081565 -4.862726 -21.153088 -10.283578 27.140942 -0.727687 -4.906805 -9.362353 -1.312636 15.728628 
12.591594 46.955196 -8.162855 -5.050566 -7.018687 -81.705818 0.000000 0.000000 0.000000 14.247129 4.912017 -0.352780 15.053952 0.008313 31.650393 -7.805580 -1.120101 28.892704 -10.312586 1.492259 14.057235 -84.068237 -83.199020 79.755760 -76.063477 1.593760 53.389465 17.581644 1.285852 -3.792795 6.755445 17.002651 12.197601 51.699867 -18.062752 -38.328506 118.564186 8.935703 -51.660652 -28.574984 14.187205 -7.719708 1.141556 15.209737 7.820515 1.856710 1.266663 6.916890 9.561580 -1.250356 -15.074248 -5.185525 -21.401960 -10.280115 27.316385 -0.684127 -4.861738 -9.534803 -1.331025 15.791399 
12.563121 46.966263 -8.152862 -5.082375 -6.954787 -81.588905 0.000000 0.000000 0.000000 14.204809 4.775196 -0.519033 15.084753 -0.274304 31.660545 -8.343187 -0.804121 28.840952 -10.481686 0.299891 13.936530 -76.462570 -83.182991 73.846680 -76.093155 1.575212 53.175529 18.759617 0.943352 -3.867144 6.823475 17.085991 12.139964 50.860435 -18.305544 -36.639961 118.719093 8.357020 -53.382999 -30.804979 15.371508 -8.380162 1.092856 15.183615 7.795416 1.849710 1.238948 6.858358 9.544949 -1.258507 -15.067370 -5.087787 -21.485933 -10.422798 27.231014 -0.615547 -4.878520 -9.509931 -1.345150 15.783841 
12.530224 46.975193 -8.141999 -5.074592 -6.851658 -81.429726 0.000000 0.000000 0.000000 13.965749 4.599360 -0.596917 15.361113 -0.191483 31.513865 -8.713613 -0.906006 28.929697 -11.399492 -0.258934 13.687468 -69.700638 -82.174057 67.736649 -76.045807 1.535428 53.461670 19.552452 1.092962 -3.860923 6.917397 17.612463 11.876575 49.547909 -18.963903 -34.907333 118.796768 7.764846 -55.449795 -32.710072 16.609627 -9.072284 0.945700 15.170077 7.764884 1.859504 1.229231 6.916735 9.596823 -1.239903 -14.978366 -5.019777 -21.560085 -10.578340 27.120895 -0.521273 -4.997643 -9.485431 -1.332212 15.778004 
12.500709 46.983097 -8.152389 -4.953732 -6.773961 -81.392845 0.000000 0.000000 0.000000 13.875930 4.560275 -0.626904 15.301270 -0.241485 31.494442 -8.458758 -0.957288 28.930172 -11.395575 -0.300807 13.600944 -70.142021 -81.642204 68.115738 -75.797005 1.407323 53.707176 19.543503 1.079857 -3.855180 6.889590 17.612553 11.798148 48.825329 -18.928627 -32.822193 118.789749 7.023176 -57.243977 -34.624710 17.965454 -9.833292 0.906702 15.293683 7.831140 1.831596 1.210456 6.809954 9.559574 -1.246734 -15.103695 -4.980143 -21.466698 -10.613752 27.014757 -0.430251 -4.981165 -9.496840 -1.335628 15.734010 
